<?xml version="1.0" standalone="no"?><!DOCTYPE svg PUBLIC "-//W3C//DTD SVG 1.1//EN" "http://www.w3.org/Graphics/SVG/1.1/DTD/svg11.dtd">
<svg t="1671115381884" class="icon" viewBox="0 0 1024 1024" version="1.1" xmlns="http://www.w3.org/2000/svg" p-id="2786" xmlns:xlink="http://www.w3.org/1999/xlink" width="200" height="200">
<path d="M325.818182 488.727273v-139.636364c0-13.963636-9.309091-23.272727-23.272727-23.272727s-23.272727 9.309091-23.272728 23.272727v116.363636H139.636364v-186.181818h302.545454v186.181818h-46.545454c-13.963636 0-23.272727 9.309091-23.272728 23.272728s9.309091 23.272727 23.272728 23.272727h69.818181c13.963636 0 23.272727-9.309091 23.272728-23.272727V256c0-13.963636-9.309091-23.272727-23.272728-23.272727H116.363636c-13.963636 0-23.272727 9.309091-23.272727 23.272727v232.727273c0 13.963636 9.309091 23.272727 23.272727 23.272727h186.181819c13.963636 0 23.272727-9.309091 23.272727-23.272727z" p-id="2787"></path><path d="M256 768m-23.272727 0a23.272727 23.272727 0 1 0 46.545454 0 23.272727 23.272727 0 1 0-46.545454 0Z" p-id="2788"></path>
<path d="M814.545455 768m-23.272728 0a23.272727 23.272727 0 1 0 46.545455 0 23.272727 23.272727 0 1 0-46.545455 0Z" p-id="2789"></path><path d="M975.127273 456.145455l-76.8-25.6c-6.981818-2.327273-13.963636-11.636364-13.963637-20.945455V209.454545c0-39.563636-30.254545-69.818182-69.818181-69.818181H69.818182C30.254545 139.636364 0 169.890909 0 209.454545v512c0 39.563636 30.254545 69.818182 69.818182 69.818182 13.963636 0 23.272727-9.309091 23.272727-23.272727s-9.309091-23.272727-23.272727-23.272727-23.272727-9.309091-23.272727-23.272728V209.454545c0-13.963636 9.309091-23.272727 23.272727-23.272727h744.727273c13.963636 0 23.272727 9.309091 23.272727 23.272727v200.145455c0 30.254545 18.618182 55.854545 48.872727 65.163636l76.8 25.6c9.309091 2.327273 16.290909 11.636364 16.290909 20.945455V581.818182h-23.272727c-13.963636 0-23.272727 9.309091-23.272727 23.272727s9.309091 23.272727 23.272727 23.272727h23.272727v93.090909c0 13.963636-9.309091 23.272727-23.272727 23.272728H930.909091c-11.636364-53.527273-58.181818-93.090909-114.036364-93.090909-9.309091 0-16.290909 0-23.272727 2.327272V256c0-13.963636-9.309091-23.272727-23.272727-23.272727h-209.454546c-13.963636 0-23.272727 9.309091-23.272727 23.272727v488.727273H372.363636c-11.636364-53.527273-58.181818-93.090909-114.036363-93.090909-65.163636 0-116.363636 51.2-116.363637 116.363636s51.2 116.363636 116.363637 116.363636c55.854545 0 102.4-39.563636 114.036363-93.090909h186.181819c13.963636 0 23.272727-9.309091 23.272727-23.272727v-93.090909h162.909091c-23.272727 16.290909-39.563636 41.890909-44.218182 69.818182H651.636364c-13.963636 0-23.272727 9.309091-23.272728 23.272727s9.309091 23.272727 23.272728 23.272727h48.872727c11.636364 53.527273 58.181818 93.090909 114.036364 93.090909s102.4-39.563636 114.036363-93.090909H954.181818c39.563636 0 69.818182-30.254545 69.818182-69.818182v-200.145454c0-30.254545-18.618182-55.854545-48.872727-65.163636zM256 837.818182c-39.563636 0-69.818182-30.254545-69.818182-69.818182s30.254545-69.818182 69.818182-69.818182 69.818182 30.254545 69.818182 69.818182-30.254545 69.818182-69.818182 69.818182z m325.818182-279.272727h46.545454c13.963636 0 23.272727 9.309091 23.272728 23.272727s9.309091 23.272727 23.272727 23.272727 23.272727-9.309091 23.272727-23.272727c0-39.563636-30.254545-69.818182-69.818182-69.818182h-46.545454V279.272727h162.909091v116.363637c-6.981818 0-11.636364 2.327273-16.290909 6.981818l-46.545455 46.545454c-9.309091 9.309091-9.309091 23.272727 0 32.581819 4.654545 4.654545 11.636364 6.981818 16.290909 6.981818s11.636364-2.327273 16.290909-6.981818l30.254546-30.254546V628.363636h-162.909091v-69.818181z m232.727273 279.272727c-39.563636 0-69.818182-30.254545-69.818182-69.818182s30.254545-69.818182 69.818182-69.818182 69.818182 30.254545 69.818181 69.818182-30.254545 69.818182-69.818181 69.818182z" p-id="2790"></path></svg>